<svg preserveAspectRatio="none" width="100%" height="100%" overflow="visible" style="display: block;" viewBox="0 0 27 27" fill="none" xmlns="http://www.w3.org/2000/svg">
<g id="&#236;&#131;&#140;&#235;&#147;&#156; &#236;&#149;&#132;&#236;&#157;&#180;&#236;&#189;&#152;">
<path id="Vector" d="M7.87319 11.5281L8.36256 12.3831C8.67419 12.9287 8.82944 13.201 8.82944 13.5002C8.82944 13.7995 8.67419 14.0717 8.36256 14.6162L7.87319 15.4724C6.48044 17.9102 5.78406 19.1286 6.32631 19.7339C6.86969 20.338 8.15669 19.7755 10.7284 18.6505L17.7889 15.5612C19.8083 14.6781 20.8186 14.236 20.8186 13.5002C20.8186 12.7645 19.8083 12.3224 17.7889 11.4392L10.7284 8.34998C8.15669 7.22498 6.86969 6.66248 6.32631 7.2666C5.78294 7.87073 6.48044 9.0891 7.87319 11.5281Z" fill="var(--fill-0, #F9F9F9)"/>
</g>
</svg>
