<svg preserveAspectRatio="none" width="100%" height="100%" overflow="visible" style="display: block;" viewBox="0 0 21 21" fill="none" xmlns="http://www.w3.org/2000/svg">
<g id="Group">
<g id="Vector">
</g>
<path id="Vector_2" fill-rule="evenodd" clip-rule="evenodd" d="M11.1186 13.7436C10.9545 13.9077 10.732 13.9998 10.5 13.9998C10.268 13.9998 10.0455 13.9077 9.88138 13.7436L4.9315 8.79375C4.84793 8.71303 4.78127 8.61648 4.73541 8.50973C4.68955 8.40298 4.66542 8.28816 4.66441 8.17198C4.6634 8.05579 4.68554 7.94057 4.72953 7.83304C4.77353 7.72551 4.8385 7.62781 4.92065 7.54565C5.00281 7.4635 5.10051 7.39853 5.20804 7.35453C5.31557 7.31053 5.43079 7.2884 5.54698 7.28941C5.66316 7.29042 5.77798 7.31455 5.88473 7.36041C5.99148 7.40627 6.08803 7.47293 6.16875 7.5565L10.5 11.8877L14.8313 7.5565C14.9963 7.39711 15.2173 7.30892 15.4467 7.31091C15.6761 7.3129 15.8956 7.40493 16.0578 7.56716C16.2201 7.72939 16.3121 7.94885 16.3141 8.17827C16.3161 8.4077 16.2279 8.62872 16.0685 8.79375L11.1186 13.7436Z" fill="var(--fill-0, #F9F9F9)"/>
</g>
</svg>
