<svg width="61" height="25" viewBox="0 0 61 25" fill="none" xmlns="http://www.w3.org/2000/svg">
<path d="M55.0594 14.1371C54.6872 14.1371 54.3488 14.0694 54.0442 13.934C53.7566 13.7817 53.5874 13.5364 53.5366 13.198C53.5704 12.4535 53.6381 11.6074 53.7397 10.6599C53.8581 9.69543 53.9935 8.71404 54.1457 7.71573C54.298 6.71743 54.4503 5.76142 54.6026 4.84771C54.7549 3.93401 54.8902 3.13875 55.0087 2.46193C55.1271 1.76819 55.2117 1.26903 55.2625 0.964466C55.3133 0.693739 55.5417 0.465313 55.9478 0.279188C56.3539 0.0930629 56.8192 0 57.3437 0C57.919 0 58.4774 0.143825 59.0188 0.431473C59.5772 0.71912 59.9664 1.22673 60.1864 1.95431C59.9495 2.32656 59.6534 2.91878 59.298 3.73096C58.9427 4.54315 58.5874 5.49069 58.232 6.5736C57.8767 7.63959 57.5721 8.78172 57.3183 10C57.0645 11.2014 56.9122 12.4027 56.8615 13.6041C56.6754 13.7563 56.4131 13.8832 56.0747 13.9848C55.7363 14.0863 55.3979 14.1371 55.0594 14.1371ZM54.6787 20.0761C53.9681 20.0761 53.3843 19.8562 52.9275 19.4162C52.4706 18.9763 52.2422 18.4264 52.2422 17.7665C52.2422 17.0558 52.5045 16.4467 53.029 15.9391C53.5704 15.4145 54.2219 15.1523 54.9833 15.1523C55.694 15.1523 56.2777 15.3807 56.7346 15.8376C57.2083 16.2775 57.4452 16.8274 57.4452 17.4873C57.4452 18.198 57.1745 18.8071 56.6331 19.3147C56.0916 19.8223 55.4402 20.0761 54.6787 20.0761Z" fill="#F9F9F9"/>
<path d="M44.5914 24.9988C43.7623 24.9988 43.077 24.7535 42.5356 24.2628C41.9941 23.7721 41.7234 23.0784 41.7234 22.1816C41.7234 21.2171 42.0618 20.0835 42.7386 18.7806C42.6202 18.8144 42.5017 18.8398 42.3833 18.8567C42.2648 18.8736 42.1464 18.8821 42.0279 18.8821C41.0466 18.8821 40.2174 18.4591 39.5406 17.6131C38.8807 16.7501 38.5508 15.5572 38.5508 14.0344C38.5508 12.6638 38.813 11.454 39.3376 10.4049C39.879 9.35587 40.5643 8.53523 41.3934 7.94301C42.2225 7.3508 43.0855 7.05469 43.9823 7.05469C44.6083 7.05469 45.1751 7.21543 45.6828 7.53692C46.1904 7.84149 46.6049 8.34064 46.9264 9.03438C46.9433 8.86518 46.9518 8.71289 46.9518 8.57753C46.9518 8.44217 46.9518 8.31526 46.9518 8.19682C46.9518 7.90917 47.1718 7.67229 47.6117 7.48616C48.0516 7.30003 48.5423 7.20697 49.0838 7.20697C49.5745 7.20697 50.0313 7.30003 50.4543 7.48616C50.8773 7.67229 51.1565 7.98531 51.2919 8.42525L51.3427 8.57753C51.1904 8.71289 51.055 9.15283 50.9366 9.89733C50.835 10.6418 50.7081 11.674 50.5559 12.9938C50.4543 13.8229 50.3274 14.7704 50.1751 15.8364C50.0229 16.8855 49.8114 17.9515 49.5406 19.0344C49.2868 20.1004 48.9484 21.0818 48.5254 21.9785C48.1024 22.8922 47.5694 23.6198 46.9264 24.1613C46.2834 24.7197 45.5051 24.9988 44.5914 24.9988ZM43.7538 15.9633C44.2445 15.9633 44.786 15.5657 45.3782 14.7704C45.9873 13.9582 46.4696 12.7992 46.8249 11.2933C46.5203 10.6334 46.2073 10.1681 45.8858 9.89733C45.5812 9.60968 45.2682 9.46585 44.9467 9.46585C44.5237 9.46585 44.1261 9.67736 43.7538 10.1004C43.3816 10.5234 43.077 11.0648 42.8401 11.7247C42.6202 12.3677 42.5102 13.0361 42.5102 13.7298C42.5102 14.4405 42.6286 14.9904 42.8655 15.3796C43.1024 15.7687 43.3985 15.9633 43.7538 15.9633ZM43.4493 22.0801C44.0246 22.0801 44.6083 21.5132 45.2005 20.3796C45.8097 19.2628 46.2327 17.6807 46.4696 15.6334C45.1836 17.3762 44.2868 18.7214 43.7792 19.6689C43.2885 20.5995 43.0432 21.2594 43.0432 21.6486C43.0432 21.9362 43.1785 22.0801 43.4493 22.0801Z" fill="#F9F9F9"/>
<path d="M26.4977 20.0008C25.8716 20.0008 25.3048 19.7555 24.7972 19.2648C24.2896 18.7572 24.0358 18.055 24.0358 17.1582C24.0358 16.7183 24.095 16.2191 24.2134 15.6607C24.3319 15.1024 24.4588 14.5355 24.5941 13.9602C24.7464 13.3849 24.8818 12.8435 25.0002 12.3359C25.1187 11.8282 25.1779 11.4137 25.1779 11.0922C25.1779 10.7538 25.1102 10.4915 24.9748 10.3054C24.8395 10.1024 24.6618 10.0008 24.4418 10.0008C24.1542 10.0008 23.8412 10.17 23.5028 10.5084L23.3505 10.4069C23.3336 10.1362 23.3928 9.81471 23.5281 9.44246C23.6635 9.07021 23.8666 8.71488 24.1373 8.37647C24.4249 8.02114 24.7887 7.72503 25.2286 7.48814C25.6686 7.25126 26.1931 7.13281 26.8023 7.13281C27.699 7.13281 28.3589 7.39508 28.7819 7.91962C29.2219 8.42723 29.4418 9.05329 29.4418 9.79779C29.4418 10.0685 29.4165 10.3308 29.3657 10.5846C29.721 10.0601 30.161 9.53552 30.6855 9.01099C31.21 8.46953 31.7853 8.02114 32.4114 7.66581C33.0544 7.31048 33.7143 7.13281 34.3911 7.13281C35.1863 7.13281 35.7278 7.38662 36.0154 7.89423C36.3031 8.40185 36.4469 9.03637 36.4469 9.79779C36.4469 10.5084 36.3708 11.2699 36.2185 12.0821C36.0662 12.8942 35.9139 13.681 35.7616 14.4425C35.6094 15.187 35.5332 15.813 35.5332 16.3206C35.5332 16.9974 35.7278 17.3359 36.117 17.3359C36.32 17.3359 36.4977 17.2766 36.65 17.1582C36.8023 17.0228 36.9038 16.8959 36.9545 16.7775L37.1322 16.8536C37.1322 17.4797 36.9545 18.0296 36.5992 18.5034C36.2608 18.9771 35.8293 19.3494 35.3048 19.6201C34.7803 19.8739 34.2473 20.0008 33.7058 20.0008C33.0459 20.0008 32.4621 19.7724 31.9545 19.3156C31.4469 18.8587 31.1931 18.1142 31.1931 17.082C31.1931 16.4729 31.2693 15.813 31.4215 15.1024C31.5907 14.3917 31.7515 13.7064 31.9038 13.0465C32.0561 12.3866 32.1322 11.8452 32.1322 11.4222C32.1322 11.1683 32.0814 10.9738 31.9799 10.8384C31.8953 10.6861 31.7346 10.61 31.4977 10.61C31.1085 10.61 30.677 10.7876 30.2033 11.143C29.7464 11.4983 29.3488 11.9721 29.0104 12.5643C28.6889 13.1565 28.5281 13.8079 28.5281 14.5186C28.5281 14.9755 28.5789 15.4154 28.6804 15.8384C28.7989 16.2614 28.8581 16.7183 28.8581 17.209C28.8581 18.1227 28.6212 18.8164 28.1474 19.2902C27.6737 19.7639 27.1237 20.0008 26.4977 20.0008Z" fill="#F9F9F9"/>
<path d="M20.1213 6.34583C19.4445 6.34583 18.8861 6.14279 18.4462 5.73669C18.0232 5.31368 17.8117 4.78915 17.8117 4.16309C17.8117 3.48627 18.0655 2.90252 18.5731 2.41182C19.0807 1.92113 19.6983 1.67578 20.4259 1.67578C21.1027 1.67578 21.6526 1.88729 22.0756 2.3103C22.5156 2.73331 22.7355 3.25785 22.7355 3.8839C22.7355 4.56072 22.4817 5.14448 21.9741 5.63517C21.4665 6.10894 20.8489 6.34583 20.1213 6.34583ZM18.3447 20.026C17.6848 20.026 17.0925 19.7976 16.568 19.3407C16.0435 18.867 15.7812 18.114 15.7812 17.0819C15.7812 16.4897 15.8574 15.9397 16.0096 15.4321C16.1788 14.9076 16.365 14.4 16.568 13.9093C16.788 13.4186 16.9741 12.9448 17.1264 12.488C17.2956 12.0142 17.3802 11.5489 17.3802 11.092C17.3802 10.6859 17.3125 10.3983 17.1771 10.2291C17.0418 10.043 16.881 9.94989 16.6949 9.94989C16.4073 9.94989 16.1281 10.136 15.8574 10.5083L15.6797 10.4067C15.7474 9.72992 15.9589 9.15463 16.3142 8.68086C16.6865 8.19016 17.1348 7.80945 17.6594 7.53872C18.2008 7.268 18.7338 7.13263 19.2584 7.13263C19.9013 7.13263 20.4597 7.34414 20.9335 7.76715C21.4073 8.17324 21.6442 8.8416 21.6442 9.77223C21.6442 10.3306 21.5596 10.9228 21.3903 11.5489C21.2381 12.158 21.0519 12.7671 20.832 13.3763C20.6289 13.9854 20.4428 14.5523 20.2736 15.0768C20.1213 15.6013 20.0452 16.0497 20.0452 16.422C20.0452 16.7435 20.1044 16.9719 20.2228 17.1072C20.3582 17.2426 20.502 17.3103 20.6543 17.3103C20.8066 17.3103 20.9504 17.268 21.0858 17.1834C21.2381 17.0819 21.348 16.9719 21.4157 16.8534L21.5934 16.9042C21.5934 17.5303 21.4242 18.0802 21.0858 18.5539C20.7643 19.0108 20.3582 19.3746 19.8675 19.6453C19.3768 19.8991 18.8692 20.026 18.3447 20.026Z" fill="#F9F9F9"/>
<path d="M2.51269 20.0259C1.93739 20.0259 1.42132 19.8144 0.964467 19.3914C0.507614 18.9514 0.279188 18.2154 0.279188 17.1833C0.279188 16.5064 0.37225 15.7535 0.558376 14.9244C0.761421 14.0953 0.998308 13.2408 1.26904 12.3609C1.55668 11.4641 1.84433 10.6012 2.13198 9.77209C2.41963 8.94298 2.65651 8.19002 2.84264 7.5132C3.02876 6.83639 3.12183 6.30339 3.12183 5.91422C3.12183 5.45737 2.94416 5.22894 2.58883 5.22894C2.16582 5.22894 1.76819 5.47429 1.39594 5.96498C1.02369 6.43875 0.609137 7.10711 0.152284 7.97006L0 7.9193C0 6.58258 0.35533 5.42353 1.06599 4.44214C1.77665 3.44383 2.73266 2.67395 3.93401 2.13249C5.15228 1.59104 6.50592 1.32031 7.99492 1.32031C9.50084 1.32031 10.7191 1.58258 11.6497 2.10711C12.5973 2.61473 13.291 3.28309 13.731 4.11219C14.1878 4.92437 14.4162 5.79578 14.4162 6.7264C14.4162 7.52166 14.264 8.31693 13.9594 9.11219C13.6717 9.89053 13.2487 10.6012 12.6904 11.2442C12.1489 11.8871 11.5059 12.4032 10.7614 12.7924C10.0169 13.1816 9.19627 13.3761 8.29949 13.3761C7.36886 13.3761 6.4044 13.1393 5.40609 12.6655C5.18612 13.4946 4.99154 14.3406 4.82233 15.2036C4.65313 16.0496 4.56853 16.921 4.56853 17.8178C4.56853 18.2577 4.59391 18.6976 4.64467 19.1376C4.35702 19.4252 4.01861 19.6452 3.62944 19.7975C3.25719 19.9497 2.88494 20.0259 2.51269 20.0259ZM6.5736 10.8381C7.25042 10.8381 7.84264 10.652 8.35025 10.2797C8.85787 9.89053 9.24704 9.4083 9.51776 8.833C9.80541 8.24078 9.94924 7.64857 9.94924 7.05635C9.94924 6.36261 9.72081 5.74501 9.26396 5.20356C8.82403 4.6621 8.09645 4.39138 7.08122 4.39138C6.94585 4.39138 6.78511 4.39984 6.59898 4.41676C6.42978 4.43368 6.25211 4.45906 6.06599 4.4929C6.20135 4.91591 6.28595 5.33892 6.3198 5.76193C6.37056 6.16803 6.39594 6.56566 6.39594 6.95483C6.39594 7.63165 6.34518 8.28309 6.24365 8.90914C6.14213 9.5352 6.02369 10.1528 5.88832 10.7619C6.12521 10.8127 6.35364 10.8381 6.5736 10.8381Z" fill="#F9F9F9"/>
<circle cx="54.9064" cy="17.9728" r="2.98839" fill="#FF0064"/>
<path d="M55.0594 14.1371C54.6872 14.1371 54.3488 14.0694 54.0442 13.934C53.7566 13.7817 53.5874 13.5364 53.5366 13.198C53.5704 12.4535 53.6381 11.6074 53.7397 10.6599C53.8581 9.69543 53.9935 8.71404 54.1457 7.71573C54.298 6.71743 54.4503 5.76142 54.6026 4.84771C54.7549 3.93401 54.8902 3.13875 55.0087 2.46193C55.1271 1.76819 55.2117 1.26903 55.2625 0.964466C55.3133 0.693739 55.5417 0.465313 55.9478 0.279188C56.3539 0.0930629 56.8192 0 57.3437 0C57.919 0 58.4774 0.143825 59.0188 0.431473C59.5772 0.71912 59.9664 1.22673 60.1864 1.95431C59.9495 2.32656 59.6534 2.91878 59.298 3.73096C58.9427 4.54315 58.5874 5.49069 58.232 6.5736C57.8767 7.63959 57.5721 8.78172 57.3183 10C57.0645 11.2014 56.9122 12.4027 56.8615 13.6041C56.6754 13.7563 56.4131 13.8832 56.0747 13.9848C55.7363 14.0863 55.3979 14.1371 55.0594 14.1371ZM54.6787 20.0761C53.9681 20.0761 53.3843 19.8562 52.9275 19.4162C52.4706 18.9763 52.2422 18.4264 52.2422 17.7665C52.2422 17.0558 52.5045 16.4467 53.029 15.9391C53.5704 15.4145 54.2219 15.1523 54.9833 15.1523C55.694 15.1523 56.2777 15.3807 56.7346 15.8376C57.2083 16.2775 57.4452 16.8274 57.4452 17.4873C57.4452 18.198 57.1745 18.8071 56.6331 19.3147C56.0916 19.8223 55.4402 20.0761 54.6787 20.0761Z" fill="#F9F9F9"/>
<path d="M44.5914 24.9988C43.7623 24.9988 43.077 24.7535 42.5356 24.2628C41.9941 23.7721 41.7234 23.0784 41.7234 22.1816C41.7234 21.2171 42.0618 20.0835 42.7386 18.7806C42.6202 18.8144 42.5017 18.8398 42.3833 18.8567C42.2648 18.8736 42.1464 18.8821 42.0279 18.8821C41.0466 18.8821 40.2174 18.4591 39.5406 17.6131C38.8807 16.7501 38.5508 15.5572 38.5508 14.0344C38.5508 12.6638 38.813 11.454 39.3376 10.4049C39.879 9.35587 40.5643 8.53523 41.3934 7.94301C42.2225 7.3508 43.0855 7.05469 43.9823 7.05469C44.6083 7.05469 45.1751 7.21543 45.6828 7.53692C46.1904 7.84149 46.6049 8.34064 46.9264 9.03438C46.9433 8.86518 46.9518 8.71289 46.9518 8.57753C46.9518 8.44217 46.9518 8.31526 46.9518 8.19682C46.9518 7.90917 47.1718 7.67229 47.6117 7.48616C48.0516 7.30003 48.5423 7.20697 49.0838 7.20697C49.5745 7.20697 50.0313 7.30003 50.4543 7.48616C50.8773 7.67229 51.1565 7.98531 51.2919 8.42525L51.3427 8.57753C51.1904 8.71289 51.055 9.15283 50.9366 9.89733C50.835 10.6418 50.7081 11.674 50.5559 12.9938C50.4543 13.8229 50.3274 14.7704 50.1751 15.8364C50.0229 16.8855 49.8114 17.9515 49.5406 19.0344C49.2868 20.1004 48.9484 21.0818 48.5254 21.9785C48.1024 22.8922 47.5694 23.6198 46.9264 24.1613C46.2834 24.7197 45.5051 24.9988 44.5914 24.9988ZM43.7538 15.9633C44.2445 15.9633 44.786 15.5657 45.3782 14.7704C45.9873 13.9582 46.4696 12.7992 46.8249 11.2933C46.5203 10.6334 46.2073 10.1681 45.8858 9.89733C45.5812 9.60968 45.2682 9.46585 44.9467 9.46585C44.5237 9.46585 44.1261 9.67736 43.7538 10.1004C43.3816 10.5234 43.077 11.0648 42.8401 11.7247C42.6202 12.3677 42.5102 13.0361 42.5102 13.7298C42.5102 14.4405 42.6286 14.9904 42.8655 15.3796C43.1024 15.7687 43.3985 15.9633 43.7538 15.9633ZM43.4493 22.0801C44.0246 22.0801 44.6083 21.5132 45.2005 20.3796C45.8097 19.2628 46.2327 17.6807 46.4696 15.6334C45.1836 17.3762 44.2868 18.7214 43.7792 19.6689C43.2885 20.5995 43.0432 21.2594 43.0432 21.6486C43.0432 21.9362 43.1785 22.0801 43.4493 22.0801Z" fill="#F9F9F9"/>
<path d="M26.4977 20.0008C25.8716 20.0008 25.3048 19.7555 24.7972 19.2648C24.2896 18.7572 24.0358 18.055 24.0358 17.1582C24.0358 16.7183 24.095 16.2191 24.2134 15.6607C24.3319 15.1024 24.4588 14.5355 24.5941 13.9602C24.7464 13.3849 24.8818 12.8435 25.0002 12.3359C25.1187 11.8282 25.1779 11.4137 25.1779 11.0922C25.1779 10.7538 25.1102 10.4915 24.9748 10.3054C24.8395 10.1024 24.6618 10.0008 24.4418 10.0008C24.1542 10.0008 23.8412 10.17 23.5028 10.5084L23.3505 10.4069C23.3336 10.1362 23.3928 9.81471 23.5281 9.44246C23.6635 9.07021 23.8666 8.71488 24.1373 8.37647C24.4249 8.02114 24.7887 7.72503 25.2286 7.48814C25.6686 7.25126 26.1931 7.13281 26.8023 7.13281C27.699 7.13281 28.3589 7.39508 28.7819 7.91962C29.2219 8.42723 29.4418 9.05329 29.4418 9.79779C29.4418 10.0685 29.4165 10.3308 29.3657 10.5846C29.721 10.0601 30.161 9.53552 30.6855 9.01099C31.21 8.46953 31.7853 8.02114 32.4114 7.66581C33.0544 7.31048 33.7143 7.13281 34.3911 7.13281C35.1863 7.13281 35.7278 7.38662 36.0154 7.89423C36.3031 8.40185 36.4469 9.03637 36.4469 9.79779C36.4469 10.5084 36.3708 11.2699 36.2185 12.0821C36.0662 12.8942 35.9139 13.681 35.7616 14.4425C35.6094 15.187 35.5332 15.813 35.5332 16.3206C35.5332 16.9974 35.7278 17.3359 36.117 17.3359C36.32 17.3359 36.4977 17.2766 36.65 17.1582C36.8023 17.0228 36.9038 16.8959 36.9545 16.7775L37.1322 16.8536C37.1322 17.4797 36.9545 18.0296 36.5992 18.5034C36.2608 18.9771 35.8293 19.3494 35.3048 19.6201C34.7803 19.8739 34.2473 20.0008 33.7058 20.0008C33.0459 20.0008 32.4621 19.7724 31.9545 19.3156C31.4469 18.8587 31.1931 18.1142 31.1931 17.082C31.1931 16.4729 31.2693 15.813 31.4215 15.1024C31.5907 14.3917 31.7515 13.7064 31.9038 13.0465C32.0561 12.3866 32.1322 11.8452 32.1322 11.4222C32.1322 11.1683 32.0814 10.9738 31.9799 10.8384C31.8953 10.6861 31.7346 10.61 31.4977 10.61C31.1085 10.61 30.677 10.7876 30.2033 11.143C29.7464 11.4983 29.3488 11.9721 29.0104 12.5643C28.6889 13.1565 28.5281 13.8079 28.5281 14.5186C28.5281 14.9755 28.5789 15.4154 28.6804 15.8384C28.7989 16.2614 28.8581 16.7183 28.8581 17.209C28.8581 18.1227 28.6212 18.8164 28.1474 19.2902C27.6737 19.7639 27.1237 20.0008 26.4977 20.0008Z" fill="#F9F9F9"/>
<path d="M20.1213 6.34583C19.4445 6.34583 18.8861 6.14279 18.4462 5.73669C18.0232 5.31368 17.8117 4.78915 17.8117 4.16309C17.8117 3.48627 18.0655 2.90252 18.5731 2.41182C19.0807 1.92113 19.6983 1.67578 20.4259 1.67578C21.1027 1.67578 21.6526 1.88729 22.0756 2.3103C22.5156 2.73331 22.7355 3.25785 22.7355 3.8839C22.7355 4.56072 22.4817 5.14448 21.9741 5.63517C21.4665 6.10894 20.8489 6.34583 20.1213 6.34583ZM18.3447 20.026C17.6848 20.026 17.0925 19.7976 16.568 19.3407C16.0435 18.867 15.7812 18.114 15.7812 17.0819C15.7812 16.4897 15.8574 15.9397 16.0096 15.4321C16.1788 14.9076 16.365 14.4 16.568 13.9093C16.788 13.4186 16.9741 12.9448 17.1264 12.488C17.2956 12.0142 17.3802 11.5489 17.3802 11.092C17.3802 10.6859 17.3125 10.3983 17.1771 10.2291C17.0418 10.043 16.881 9.94989 16.6949 9.94989C16.4073 9.94989 16.1281 10.136 15.8574 10.5083L15.6797 10.4067C15.7474 9.72992 15.9589 9.15463 16.3142 8.68086C16.6865 8.19016 17.1348 7.80945 17.6594 7.53872C18.2008 7.268 18.7338 7.13263 19.2584 7.13263C19.9013 7.13263 20.4597 7.34414 20.9335 7.76715C21.4073 8.17324 21.6442 8.8416 21.6442 9.77223C21.6442 10.3306 21.5596 10.9228 21.3903 11.5489C21.2381 12.158 21.0519 12.7671 20.832 13.3763C20.6289 13.9854 20.4428 14.5523 20.2736 15.0768C20.1213 15.6013 20.0452 16.0497 20.0452 16.422C20.0452 16.7435 20.1044 16.9719 20.2228 17.1072C20.3582 17.2426 20.502 17.3103 20.6543 17.3103C20.8066 17.3103 20.9504 17.268 21.0858 17.1834C21.2381 17.0819 21.348 16.9719 21.4157 16.8534L21.5934 16.9042C21.5934 17.5303 21.4242 18.0802 21.0858 18.5539C20.7643 19.0108 20.3582 19.3746 19.8675 19.6453C19.3768 19.8991 18.8692 20.026 18.3447 20.026Z" fill="#F9F9F9"/>
<path d="M2.51269 20.0259C1.93739 20.0259 1.42132 19.8144 0.964467 19.3914C0.507614 18.9514 0.279188 18.2154 0.279188 17.1833C0.279188 16.5064 0.37225 15.7535 0.558376 14.9244C0.761421 14.0953 0.998308 13.2408 1.26904 12.3609C1.55668 11.4641 1.84433 10.6012 2.13198 9.77209C2.41963 8.94298 2.65651 8.19002 2.84264 7.5132C3.02876 6.83639 3.12183 6.30339 3.12183 5.91422C3.12183 5.45737 2.94416 5.22894 2.58883 5.22894C2.16582 5.22894 1.76819 5.47429 1.39594 5.96498C1.02369 6.43875 0.609137 7.10711 0.152284 7.97006L0 7.9193C0 6.58258 0.35533 5.42353 1.06599 4.44214C1.77665 3.44383 2.73266 2.67395 3.93401 2.13249C5.15228 1.59104 6.50592 1.32031 7.99492 1.32031C9.50084 1.32031 10.7191 1.58258 11.6497 2.10711C12.5973 2.61473 13.291 3.28309 13.731 4.11219C14.1878 4.92437 14.4162 5.79578 14.4162 6.7264C14.4162 7.52166 14.264 8.31693 13.9594 9.11219C13.6717 9.89053 13.2487 10.6012 12.6904 11.2442C12.1489 11.8871 11.5059 12.4032 10.7614 12.7924C10.0169 13.1816 9.19627 13.3761 8.29949 13.3761C7.36886 13.3761 6.4044 13.1393 5.40609 12.6655C5.18612 13.4946 4.99154 14.3406 4.82233 15.2036C4.65313 16.0496 4.56853 16.921 4.56853 17.8178C4.56853 18.2577 4.59391 18.6976 4.64467 19.1376C4.35702 19.4252 4.01861 19.6452 3.62944 19.7975C3.25719 19.9497 2.88494 20.0259 2.51269 20.0259ZM6.5736 10.8381C7.25042 10.8381 7.84264 10.652 8.35025 10.2797C8.85787 9.89053 9.24704 9.4083 9.51776 8.833C9.80541 8.24078 9.94924 7.64857 9.94924 7.05635C9.94924 6.36261 9.72081 5.74501 9.26396 5.20356C8.82403 4.6621 8.09645 4.39138 7.08122 4.39138C6.94585 4.39138 6.78511 4.39984 6.59898 4.41676C6.42978 4.43368 6.25211 4.45906 6.06599 4.4929C6.20135 4.91591 6.28595 5.33892 6.3198 5.76193C6.37056 6.16803 6.39594 6.56566 6.39594 6.95483C6.39594 7.63165 6.34518 8.28309 6.24365 8.90914C6.14213 9.5352 6.02369 10.1528 5.88832 10.7619C6.12521 10.8127 6.35364 10.8381 6.5736 10.8381Z" fill="#F9F9F9"/>
<circle cx="54.9064" cy="17.9728" r="2.98839" fill="#00BFDC"/>
</svg>
