<svg width="32" height="32" viewBox="0 0 32 32" fill="none" xmlns="http://www.w3.org/2000/svg">
<path fill-rule="evenodd" clip-rule="evenodd" d="M11.0573 16.9427C10.8073 16.6927 10.6669 16.3536 10.6669 16.0001C10.6669 15.6465 10.8073 15.3074 11.0573 15.0574L18.6 7.51472C18.7229 7.38737 18.8701 7.2858 19.0327 7.21592C19.1954 7.14604 19.3704 7.10926 19.5474 7.10772C19.7245 7.10618 19.9 7.13992 20.0639 7.20696C20.2278 7.274 20.3766 7.373 20.5018 7.49819C20.627 7.62338 20.726 7.77225 20.793 7.93611C20.8601 8.09997 20.8938 8.27555 20.8923 8.45259C20.8907 8.62963 20.854 8.80459 20.7841 8.96726C20.7142 9.12993 20.6126 9.27706 20.4853 9.40005L13.8853 16.0001L20.4853 22.6001C20.7282 22.8515 20.8626 23.1883 20.8595 23.5379C20.8565 23.8875 20.7163 24.2219 20.469 24.4691C20.2218 24.7164 19.8874 24.8566 19.5378 24.8596C19.1882 24.8627 18.8514 24.7283 18.6 24.4854L11.0573 16.9427Z" fill="#F9F9F9"/>
</svg>
