<svg preserveAspectRatio="none" width="100%" height="100%" overflow="visible" style="display: block;" viewBox="0 0 25 25" fill="none" xmlns="http://www.w3.org/2000/svg">
<g id="famicons:flash-off">
<path id="Vector" d="M21.0938 21.875C20.9911 21.8752 20.8895 21.855 20.7947 21.8157C20.6999 21.7764 20.6139 21.7187 20.5415 21.646L3.354 4.4585C3.21368 4.31079 3.1366 4.11411 3.13921 3.91039C3.14182 3.70667 3.2239 3.51203 3.36797 3.36797C3.51203 3.2239 3.70667 3.14182 3.91039 3.13921C4.11411 3.1366 4.31079 3.21368 4.4585 3.354L21.646 20.5415C21.7552 20.6508 21.8295 20.7899 21.8596 20.9414C21.8898 21.0929 21.8743 21.25 21.8152 21.3927C21.7561 21.5354 21.656 21.6574 21.5276 21.7432C21.3992 21.8291 21.2482 21.8749 21.0938 21.875ZM21.0693 9.96094C21.026 9.79317 20.9282 9.64457 20.7912 9.5385C20.6541 9.43243 20.4858 9.37491 20.3125 9.375H14.9995L16.377 1.8374C16.3794 1.82275 16.3818 1.80859 16.3833 1.79395C16.4082 1.5985 16.3683 1.40028 16.2697 1.22967C16.1712 1.05906 16.0194 0.92546 15.8377 0.849335C15.656 0.773209 15.4543 0.758758 15.2636 0.808195C15.0729 0.857632 14.9036 0.96823 14.7817 1.12305L10.2612 6.71191C10.2309 6.7495 10.2155 6.797 10.2181 6.84525C10.2207 6.8935 10.2411 6.93907 10.2754 6.97314L17.6484 14.3462C17.6678 14.3656 17.691 14.3807 17.7166 14.3905C17.7421 14.4003 17.7695 14.4047 17.7968 14.4032C17.8242 14.4018 17.8509 14.3946 17.8753 14.3822C17.8997 14.3698 17.9212 14.3523 17.9385 14.3311L20.9072 10.6611C20.987 10.5652 21.0433 10.4519 21.0714 10.3303C21.0996 10.2087 21.0989 10.0822 21.0693 9.96094ZM14.7251 18.0269L7.35205 10.6538C7.3327 10.6345 7.30952 10.6195 7.28401 10.6097C7.25849 10.5999 7.2312 10.5956 7.20391 10.597C7.17662 10.5985 7.14993 10.6056 7.12558 10.618C7.10122 10.6304 7.07973 10.6477 7.0625 10.6689L4.0918 14.3379C4.01201 14.434 3.95587 14.5476 3.92788 14.6693C3.8999 14.7911 3.90085 14.9177 3.93066 15.0391C3.97398 15.2068 4.07184 15.3554 4.20885 15.4615C4.34585 15.5676 4.51423 15.6251 4.6875 15.625H10.0015L8.62988 23.1621V23.1675C8.59603 23.3639 8.62856 23.566 8.72233 23.7418C8.8161 23.9177 8.96578 24.0573 9.14773 24.1387C9.32968 24.22 9.53354 24.2385 9.72713 24.1911C9.92072 24.1437 10.093 24.0332 10.2168 23.877L14.7388 18.2881C14.7692 18.2506 14.7847 18.2031 14.7821 18.1548C14.7796 18.1066 14.7593 18.061 14.7251 18.0269Z" fill="var(--fill-0, #F9F9F9)"/>
</g>
</svg>
