<svg preserveAspectRatio="none" width="100%" height="100%" overflow="visible" style="display: block;" viewBox="0 0 24 24" fill="none" xmlns="http://www.w3.org/2000/svg">
<g id="material-symbols:flip-camera-android-rounded">
<path id="Vector" d="M12 22C9.86667 22 7.946 21.3917 6.238 20.175C4.53 18.9583 3.31733 17.3667 2.6 15.4C2.51667 15.15 2.54167 14.9167 2.675 14.7C2.80833 14.4833 3.00833 14.3333 3.275 14.25C3.54167 14.1667 3.796 14.196 4.038 14.338C4.28 14.48 4.45067 14.6757 4.55 14.925C5.15 16.4417 6.125 17.6667 7.475 18.6C8.825 19.5333 10.3333 20 12 20C13.4333 20 14.7667 19.646 16 18.938C17.2333 18.23 18.2 17.2507 18.9 16H17C16.7167 16 16.4793 15.904 16.288 15.712C16.0967 15.52 16.0007 15.2827 16 15C15.9993 14.7173 16.0953 14.48 16.288 14.288C16.4807 14.096 16.718 14 17 14H21C21.2833 14 21.521 14.096 21.713 14.288C21.905 14.48 22.0007 14.7173 22 15V19C22 19.2833 21.904 19.521 21.712 19.713C21.52 19.905 21.2827 20.0007 21 20C20.7173 19.9993 20.48 19.9033 20.288 19.712C20.096 19.5207 20 19.2833 20 19V18C19.05 19.2667 17.875 20.25 16.475 20.95C15.075 21.65 13.5833 22 12 22ZM12 4C10.5667 4 9.23333 4.35433 8 5.063C6.76667 5.77167 5.8 6.75067 5.1 8H7C7.28333 8 7.521 8.096 7.713 8.288C7.905 8.48 8.00067 8.71733 8 9C7.99933 9.28267 7.90333 9.52033 7.712 9.713C7.52067 9.90567 7.28333 10.0013 7 10H3C2.71667 10 2.47933 9.904 2.288 9.712C2.09667 9.52 2.00067 9.28267 2 9V5C2 4.71667 2.096 4.47933 2.288 4.288C2.48 4.09667 2.71733 4.00067 3 4C3.28267 3.99933 3.52033 4.09533 3.713 4.288C3.90567 4.48067 4.00133 4.718 4 5V6C4.95 4.73333 6.125 3.75 7.525 3.05C8.925 2.35 10.4167 2 12 2C14.1333 2 16.0543 2.60833 17.763 3.825C19.4717 5.04167 20.684 6.63333 21.4 8.6C21.4833 8.85 21.4583 9.08333 21.325 9.3C21.1917 9.51667 20.9917 9.66667 20.725 9.75C20.4583 9.83333 20.204 9.804 19.962 9.662C19.72 9.52 19.5493 9.32433 19.45 9.075C18.85 7.55833 17.875 6.33333 16.525 5.4C15.175 4.46667 13.6667 4 12 4Z" fill="var(--fill-0, #F9F9F9)"/>
</g>
</svg>
