<svg preserveAspectRatio="none" width="100%" height="100%" overflow="visible" style="display: block;" viewBox="0 0 60.1882 25" fill="none" xmlns="http://www.w3.org/2000/svg">
<g id="Frame 427322387">
<g id="Ping!">
<path id="Vector" d="M55.0613 14.1371C54.689 14.1371 54.3506 14.0694 54.046 13.934C53.7584 13.7817 53.5892 13.5364 53.5384 13.198C53.5723 12.4535 53.6399 11.6074 53.7415 10.6599C53.8599 9.69543 53.9953 8.71404 54.1475 7.71573C54.2998 6.71743 54.4521 5.76142 54.6044 4.84771C54.7567 3.93401 54.892 3.13875 55.0105 2.46193C55.1289 1.76819 55.2135 1.26903 55.2643 0.964466C55.3151 0.693739 55.5435 0.465313 55.9496 0.279188C56.3557 0.0930629 56.821 0 57.3455 0C57.9208 0 58.4792 0.143825 59.0206 0.431473C59.579 0.71912 59.9682 1.22673 60.1882 1.95431C59.9513 2.32656 59.6552 2.91878 59.2998 3.73096C58.9445 4.54315 58.5892 5.49069 58.2338 6.5736C57.8785 7.63959 57.5739 8.78172 57.3201 10C57.0663 11.2014 56.914 12.4027 56.8633 13.6041C56.6772 13.7563 56.4149 13.8832 56.0765 13.9848C55.7381 14.0863 55.3997 14.1371 55.0613 14.1371ZM54.6805 20.0761C53.9699 20.0761 53.3861 19.8562 52.9293 19.4162C52.4724 18.9763 52.244 18.4264 52.244 17.7665C52.244 17.0558 52.5063 16.4467 53.0308 15.9391C53.5723 15.4145 54.2237 15.1523 54.9851 15.1523C55.6958 15.1523 56.2795 15.3807 56.7364 15.8376C57.2102 16.2775 57.447 16.8274 57.447 17.4873C57.447 18.198 57.1763 18.8071 56.6349 19.3147C56.0934 19.8223 55.442 20.0761 54.6805 20.0761Z" fill="var(--fill-0, #F9F9F9)"/>
<path id="Vector_2" d="M44.5915 25C43.7624 25 43.0771 24.7547 42.5357 24.264C41.9942 23.7733 41.7235 23.0795 41.7235 22.1827C41.7235 21.2183 42.0619 20.0846 42.7387 18.7817C42.6203 18.8156 42.5018 18.8409 42.3834 18.8579C42.2649 18.8748 42.1465 18.8833 42.028 18.8833C41.0467 18.8833 40.2176 18.4602 39.5407 17.6142C38.8808 16.7513 38.5509 15.5584 38.5509 14.0355C38.5509 12.665 38.8132 11.4552 39.3377 10.4061C39.8791 9.35702 40.5644 8.53638 41.3935 7.94417C42.2226 7.35195 43.0856 7.05584 43.9824 7.05584C44.6084 7.05584 45.1753 7.21659 45.6829 7.53807C46.1905 7.84264 46.605 8.3418 46.9265 9.03554C46.9434 8.86633 46.9519 8.71405 46.9519 8.57868C46.9519 8.44332 46.9519 8.31642 46.9519 8.19797C46.9519 7.91032 47.1719 7.67344 47.6118 7.48731C48.0517 7.30119 48.5424 7.20812 49.0839 7.20812C49.5746 7.20812 50.0314 7.30119 50.4544 7.48731C50.8775 7.67344 51.1566 7.98647 51.292 8.4264L51.3428 8.57868C51.1905 8.71405 51.0551 9.15398 50.9367 9.89848C50.8352 10.643 50.7083 11.6751 50.556 12.9949C50.4544 13.824 50.3275 14.7716 50.1753 15.8376C50.023 16.8866 49.8115 17.9526 49.5407 19.0355C49.2869 20.1015 48.9485 21.0829 48.5255 21.9797C48.1025 22.8934 47.5695 23.621 46.9265 24.1624C46.2835 24.7208 45.5052 25 44.5915 25ZM43.7539 15.9645C44.2446 15.9645 44.7861 15.5668 45.3783 14.7716C45.9874 13.9594 46.4697 12.8003 46.825 11.2944C46.5204 10.6345 46.2074 10.1692 45.8859 9.89848C45.5813 9.61083 45.2683 9.46701 44.9468 9.46701C44.5238 9.46701 44.1262 9.67851 43.7539 10.1015C43.3817 10.5245 43.0771 11.066 42.8402 11.7259C42.6203 12.3689 42.5103 13.0372 42.5103 13.731C42.5103 14.4416 42.6287 14.9915 42.8656 15.3807C43.1025 15.7699 43.3986 15.9645 43.7539 15.9645ZM43.4494 22.0812C44.0247 22.0812 44.6084 21.5144 45.2006 20.3807C45.8098 19.264 46.2328 17.6819 46.4697 15.6345C45.1837 17.3773 44.2869 18.7225 43.7793 19.6701C43.2886 20.6007 43.0433 21.2606 43.0433 21.6497C43.0433 21.9374 43.1786 22.0812 43.4494 22.0812Z" fill="var(--fill-0, #F9F9F9)"/>
<path id="Vector_3" d="M26.4973 20C25.8712 20 25.3044 19.7546 24.7967 19.264C24.2891 18.7563 24.0353 18.0541 24.0353 17.1574C24.0353 16.7174 24.0945 16.2183 24.213 15.6599C24.3314 15.1015 24.4583 14.5347 24.5937 13.9594C24.746 13.3841 24.8813 12.8426 24.9998 12.335C25.1182 11.8274 25.1775 11.4129 25.1775 11.0914C25.1775 10.753 25.1098 10.4907 24.9744 10.3046C24.839 10.1015 24.6614 10 24.4414 10C24.1538 10 23.8407 10.1692 23.5023 10.5076L23.35 10.4061C23.3331 10.1354 23.3923 9.81387 23.5277 9.44162C23.6631 9.06937 23.8661 8.71404 24.1368 8.37563C24.4245 8.0203 24.7883 7.72419 25.2282 7.48731C25.6681 7.25042 26.1927 7.13198 26.8018 7.13198C27.6986 7.13198 28.3585 7.39425 28.7815 7.91878C29.2214 8.42639 29.4414 9.05245 29.4414 9.79695C29.4414 10.0677 29.416 10.3299 29.3653 10.5838C29.7206 10.0592 30.1605 9.53468 30.6851 9.01015C31.2096 8.4687 31.7849 8.0203 32.411 7.66497C33.0539 7.30964 33.7138 7.13198 34.3907 7.13198C35.1859 7.13198 35.7274 7.38578 36.015 7.8934C36.3027 8.40101 36.4465 9.03553 36.4465 9.79695C36.4465 10.5076 36.3703 11.269 36.2181 12.0812C36.0658 12.8934 35.9135 13.6802 35.7612 14.4416C35.6089 15.1861 35.5328 15.8122 35.5328 16.3198C35.5328 16.9966 35.7274 17.335 36.1165 17.335C36.3196 17.335 36.4973 17.2758 36.6495 17.1574C36.8018 17.022 36.9033 16.8951 36.9541 16.7766L37.1318 16.8528C37.1318 17.4788 36.9541 18.0288 36.5988 18.5025C36.2604 18.9763 35.8289 19.3486 35.3044 19.6193C34.7798 19.8731 34.2468 20 33.7054 20C33.0455 20 32.4617 19.7716 31.9541 19.3147C31.4465 18.8579 31.1927 18.1134 31.1927 17.0812C31.1927 16.4721 31.2688 15.8122 31.4211 15.1015C31.5903 14.3909 31.7511 13.7056 31.9033 13.0457C32.0556 12.3858 32.1318 11.8443 32.1318 11.4213C32.1318 11.1675 32.081 10.9729 31.9795 10.8376C31.8949 10.6853 31.7341 10.6091 31.4973 10.6091C31.1081 10.6091 30.6766 10.7868 30.2028 11.1421C29.746 11.4975 29.3484 11.9712 29.0099 12.5634C28.6885 13.1557 28.5277 13.8071 28.5277 14.5178C28.5277 14.9746 28.5785 15.4145 28.68 15.8376C28.7984 16.2606 28.8577 16.7174 28.8577 17.2081C28.8577 18.1218 28.6208 18.8156 28.147 19.2893C27.6732 19.7631 27.1233 20 26.4973 20Z" fill="var(--fill-0, #F9F9F9)"/>
<path id="Vector_4" d="M20.1199 6.34518C19.4431 6.34518 18.8847 6.14214 18.4448 5.73605C18.0218 5.31303 17.8103 4.7885 17.8103 4.16244C17.8103 3.48562 18.0641 2.90187 18.5717 2.41117C19.0793 1.92048 19.6969 1.67513 20.4245 1.67513C21.1013 1.67513 21.6512 1.88664 22.0743 2.30965C22.5142 2.73266 22.7342 3.2572 22.7342 3.88326C22.7342 4.56007 22.4803 5.14383 21.9727 5.63452C21.4651 6.1083 20.8475 6.34518 20.1199 6.34518ZM18.3433 20.0254C17.6834 20.0254 17.0912 19.797 16.5666 19.3401C16.0421 18.8663 15.7798 18.1134 15.7798 17.0812C15.7798 16.489 15.856 15.9391 16.0083 15.4315C16.1775 14.9069 16.3636 14.3993 16.5666 13.9086C16.7866 13.4179 16.9727 12.9442 17.125 12.4873C17.2942 12.0135 17.3788 11.5482 17.3788 11.0914C17.3788 10.6853 17.3111 10.3976 17.1758 10.2284C17.0404 10.0423 16.8797 9.94924 16.6935 9.94924C16.4059 9.94924 16.1267 10.1354 15.856 10.5076L15.6783 10.4061C15.746 9.72928 15.9575 9.15398 16.3128 8.68021C16.6851 8.18951 17.1335 7.8088 17.658 7.53808C18.1995 7.26735 18.7325 7.13199 19.257 7.13199C19.9 7.13199 20.4583 7.34349 20.9321 7.7665C21.4059 8.17259 21.6428 8.84095 21.6428 9.77158C21.6428 10.33 21.5582 10.9222 21.389 11.5482C21.2367 12.1574 21.0506 12.7665 20.8306 13.3756C20.6276 13.9848 20.4414 14.5516 20.2722 15.0761C20.1199 15.6007 20.0438 16.0491 20.0438 16.4213C20.0438 16.7428 20.103 16.9712 20.2215 17.1066C20.3568 17.242 20.5007 17.3096 20.6529 17.3096C20.8052 17.3096 20.949 17.2673 21.0844 17.1827C21.2367 17.0812 21.3467 16.9712 21.4144 16.8528L21.592 16.9036C21.592 17.5296 21.4228 18.0795 21.0844 18.5533C20.7629 19.0102 20.3568 19.3739 19.8661 19.6447C19.3754 19.8985 18.8678 20.0254 18.3433 20.0254Z" fill="var(--fill-0, #F9F9F9)"/>
<path id="Vector_5" d="M2.51269 20.0254C1.93739 20.0254 1.42132 19.8139 0.964467 19.3909C0.507614 18.951 0.279188 18.2149 0.279188 17.1828C0.279188 16.506 0.37225 15.753 0.558376 14.9239C0.761421 14.0948 0.998308 13.2403 1.26904 12.3604C1.55668 11.4637 1.84433 10.6007 2.13198 9.7716C2.41963 8.9425 2.65651 8.18954 2.84264 7.51272C3.02876 6.8359 3.12183 6.30291 3.12183 5.91374C3.12183 5.45688 2.94416 5.22846 2.58883 5.22846C2.16582 5.22846 1.76819 5.4738 1.39594 5.9645C1.02369 6.43827 0.609137 7.10663 0.152284 7.96957L0 7.91881C0 6.5821 0.35533 5.42304 1.06599 4.44166C1.77665 3.44335 2.73266 2.67347 3.93401 2.13201C5.15228 1.59056 6.50592 1.31983 7.99492 1.31983C9.50084 1.31983 10.7191 1.5821 11.6497 2.10663C12.5973 2.61424 13.291 3.2826 13.731 4.11171C14.1878 4.92389 14.4162 5.79529 14.4162 6.72592C14.4162 7.52118 14.264 8.31644 13.9594 9.11171C13.6717 9.89005 13.2487 10.6007 12.6904 11.2437C12.1489 11.8867 11.5059 12.4027 10.7614 12.7919C10.0169 13.1811 9.19628 13.3757 8.29949 13.3757C7.36886 13.3757 6.4044 13.1388 5.40609 12.665C5.18612 13.4941 4.99154 14.3401 4.82233 15.2031C4.65313 16.0491 4.56853 16.9205 4.56853 17.8173C4.56853 18.2572 4.59391 18.6972 4.64467 19.1371C4.35702 19.4247 4.01861 19.6447 3.62944 19.797C3.25719 19.9493 2.88494 20.0254 2.51269 20.0254ZM6.5736 10.8376C7.25042 10.8376 7.84264 10.6515 8.35025 10.2792C8.85787 9.89005 9.24704 9.40781 9.51776 8.83252C9.80541 8.2403 9.94924 7.64809 9.94924 7.05587C9.94924 6.36213 9.72081 5.74453 9.26396 5.20308C8.82403 4.66162 8.09645 4.39089 7.08122 4.39089C6.94585 4.39089 6.78511 4.39935 6.59898 4.41628C6.42978 4.4332 6.25211 4.45858 6.06599 4.49242C6.20135 4.91543 6.28596 5.33844 6.3198 5.76145C6.37056 6.16754 6.39594 6.56517 6.39594 6.95435C6.39594 7.63116 6.34518 8.2826 6.24365 8.90866C6.14213 9.53472 6.02369 10.1523 5.88832 10.7615C6.12521 10.8122 6.35364 10.8376 6.5736 10.8376Z" fill="var(--fill-0, #F9F9F9)"/>
<g id="Frame 427322385">
</g>
</g>
<circle id="Ellipse 2374" cx="54.9074" cy="17.9716" r="2.98839" fill="var(--fill-0, #FF0064)"/>
</g>
</svg>
