<svg preserveAspectRatio="none" width="100%" height="100%" overflow="visible" style="display: block;" viewBox="0 0 26 26" fill="none" xmlns="http://www.w3.org/2000/svg">
<g id="&#235;&#175;&#184;&#237;&#138;&#184;&#235;&#179;&#188; &#236;&#149;&#132;&#236;&#157;&#180;&#236;&#189;&#152;">
<path id="Vector" d="M4.46875 12.9746C4.46875 13.1613 4.50553 13.3462 4.57698 13.5187C4.64844 13.6912 4.75317 13.848 4.88521 13.98C5.01724 14.1121 5.17399 14.2168 5.3465 14.2883C5.51901 14.3597 5.7039 14.3965 5.89062 14.3965C6.07735 14.3965 6.26224 14.3597 6.43475 14.2883C6.60726 14.2168 6.76401 14.1121 6.89604 13.98C7.02808 13.848 7.13281 13.6912 7.20427 13.5187C7.27572 13.3462 7.3125 13.1613 7.3125 12.9746C7.3125 12.7879 7.27572 12.603 7.20427 12.4305C7.13281 12.258 7.02808 12.1012 6.89604 11.9692C6.76401 11.8372 6.60726 11.7324 6.43475 11.661C6.26224 11.5895 6.07735 11.5527 5.89062 11.5527C5.7039 11.5527 5.51901 11.5895 5.3465 11.661C5.17399 11.7324 5.01724 11.8372 4.88521 11.9692C4.75317 12.1012 4.64844 12.258 4.57698 12.4305C4.50553 12.603 4.46875 12.7879 4.46875 12.9746ZM11.5781 12.9746C11.5781 13.3517 11.7279 13.7134 11.9946 13.98C12.2612 14.2467 12.6229 14.3965 13 14.3965C13.3771 14.3965 13.7388 14.2467 14.0054 13.98C14.2721 13.7134 14.4219 13.3517 14.4219 12.9746C14.4219 12.5975 14.2721 12.2358 14.0054 11.9692C13.7388 11.7025 13.3771 11.5527 13 11.5527C12.6229 11.5527 12.2612 11.7025 11.9946 11.9692C11.7279 12.2358 11.5781 12.5975 11.5781 12.9746ZM18.6875 12.9746C18.6875 13.3517 18.8373 13.7134 19.104 13.98C19.3706 14.2467 19.7323 14.3965 20.1094 14.3965C20.4865 14.3965 20.8481 14.2467 21.1148 13.98C21.3814 13.7134 21.5312 13.3517 21.5312 12.9746C21.5312 12.5975 21.3814 12.2358 21.1148 11.9692C20.8481 11.7025 20.4865 11.5527 20.1094 11.5527C19.7323 11.5527 19.3706 11.7025 19.104 11.9692C18.8373 12.2358 18.6875 12.5975 18.6875 12.9746Z" fill="var(--fill-0, #F9F9F9)"/>
</g>
</svg>
